<svg width="249" height="27" viewBox="0 0 249 27" fill="none" xmlns="http://www.w3.org/2000/svg">
<path d="M241.905 23.3C241.905 22.124 242.229 21.308 242.877 20.852C243.549 20.372 244.353 20.132 245.289 20.132C246.201 20.132 246.981 20.372 247.629 20.852C248.277 21.308 248.601 22.124 248.601 23.3C248.601 24.404 248.277 25.208 247.629 25.712C246.981 26.216 246.201 26.468 245.289 26.468C244.353 26.468 243.549 26.216 242.877 25.712C242.229 25.208 241.905 24.404 241.905 23.3Z" fill="white"/>
<path d="M237.094 26H230.974V15.2H221.758V26H215.602V0.296021H221.758V10.124H230.974V0.296021H237.094V26Z" fill="#BC7AF9"/>
<path d="M212.585 26H205.601L199.661 15.632L197.465 17.072V26H191.309V0.296021H197.465V11.78C197.777 11.252 198.113 10.724 198.473 10.196C198.857 9.66802 199.229 9.15202 199.589 8.64802L205.853 0.296021H212.585L204.017 11.744L212.585 26Z" fill="#BC7AF9"/>
<path d="M185.446 16.388C185.446 18.356 185.05 20.096 184.258 21.608C183.466 23.096 182.266 24.26 180.658 25.1C179.05 25.94 177.022 26.36 174.574 26.36C171.118 26.36 168.478 25.472 166.654 23.696C164.83 21.92 163.918 19.496 163.918 16.424V0.296021H170.074V15.74C170.074 17.708 170.458 19.112 171.226 19.952C172.018 20.792 173.182 21.212 174.718 21.212C175.798 21.212 176.674 21.02 177.346 20.636C178.018 20.252 178.51 19.652 178.822 18.836C179.158 18.02 179.326 16.976 179.326 15.704V0.296021H185.446V16.388Z" fill="#BC7AF9"/>
<path d="M143.813 26V0.296021H149.933V20.996H160.121V26H143.813Z" fill="#BC7AF9"/>
<path d="M134.092 26L132.508 20.492H123.616L122.032 26H115.336L124.084 0.187988H131.932L140.788 26H134.092ZM129.628 10.232C129.508 9.79999 129.34 9.22399 129.124 8.50399C128.932 7.75999 128.728 7.00399 128.512 6.23599C128.32 5.46799 128.164 4.81999 128.044 4.29199C127.948 4.81999 127.792 5.47999 127.576 6.27199C127.384 7.03999 127.192 7.79599 127 8.53999C126.808 9.25999 126.652 9.82399 126.532 10.232L125.02 15.38H131.14L129.628 10.232Z" fill="#BC7AF9"/>
<path d="M102.561 0.296021C104.937 0.296021 106.893 0.52402 108.429 0.98002C109.965 1.43602 111.105 2.14402 111.849 3.10402C112.593 4.04002 112.965 5.26402 112.965 6.77602C112.965 7.80802 112.785 8.72002 112.425 9.51202C112.065 10.28 111.585 10.916 110.985 11.42C110.385 11.9 109.713 12.212 108.969 12.356V12.536C109.737 12.704 110.469 13.004 111.165 13.436C111.861 13.844 112.425 14.456 112.857 15.272C113.313 16.088 113.541 17.168 113.541 18.512C113.541 20.072 113.145 21.416 112.353 22.544C111.585 23.672 110.481 24.536 109.041 25.136C107.601 25.712 105.897 26 103.929 26H94.1373V0.296021H102.561ZM102.957 10.34C104.325 10.34 105.285 10.1 105.837 9.62002C106.389 9.11602 106.665 8.44402 106.665 7.60402C106.665 6.76402 106.341 6.14002 105.693 5.73202C105.069 5.32402 104.073 5.12002 102.705 5.12002H100.257V10.34H102.957ZM100.257 15.02V21.104H103.317C104.757 21.104 105.753 20.816 106.305 20.24C106.881 19.664 107.169 18.908 107.169 17.972C107.169 17.396 107.049 16.892 106.809 16.46C106.569 16.004 106.149 15.656 105.549 15.416C104.973 15.152 104.181 15.02 103.173 15.02H100.257Z" fill="#BC7AF9"/>
<path d="M81.6768 26H74.6208L69.1128 17.072L63.6048 26H56.8368L65.3688 12.788L57.3408 0.296021H64.1448L69.2928 8.93602L74.2608 0.296021H81.0648L73.0008 13.22L81.6768 26Z" fill="#BC7AF9"/>
<path d="M50.1037 26L48.5197 20.492H39.6277L38.0437 26H31.3477L40.0957 0.187988H47.9437L56.7997 26H50.1037ZM45.6397 10.232C45.5197 9.79999 45.3517 9.22399 45.1357 8.50399C44.9437 7.75999 44.7397 7.00399 44.5237 6.23599C44.3317 5.46799 44.1757 4.81999 44.0557 4.29199C43.9597 4.81999 43.8037 5.47999 43.5877 6.27199C43.3957 7.03999 43.2037 7.79599 43.0117 8.53999C42.8197 9.25999 42.6637 9.82399 42.5437 10.232L41.0317 15.38H47.1517L45.6397 10.232Z" fill="#BC7AF9"/>
<path d="M11.04 26L5.28 6.59602H5.136C5.184 7.07602 5.232 7.77202 5.28 8.68402C5.328 9.57202 5.376 10.532 5.424 11.564C5.472 12.572 5.496 13.52 5.496 14.408V26H0.0240021V0.296021H8.304L14.028 19.304H14.172L20.076 0.296021H28.32V26H22.632V14.264C22.632 13.448 22.644 12.548 22.668 11.564C22.716 10.556 22.752 9.60802 22.776 8.72002C22.824 7.80802 22.86 7.11202 22.884 6.63202H22.74L16.8 26H11.04Z" fill="#BC7AF9"/>
</svg>
