<svg width="40" height="27" viewBox="0 0 40 27" fill="none" xmlns="http://www.w3.org/2000/svg">
<g clip-path="url(#clip0_3_5)">
<path d="M0 0H40V26.6667H0V0Z" fill="white"/>
<path d="M0 0H40V2.05068H0V0ZM0 4.10136H40V6.15205H0V4.10136ZM0 8.20273H40V10.2534H0V8.20273ZM0 12.3041H40V14.3548H0V12.3041ZM0 16.4133H40V18.4639H0V16.4133ZM0 20.5146H40V22.5653H0V20.5146ZM0 24.616H40V26.6667H0V24.616Z" fill="#D80027"/>
<path d="M0 0H20V14.3548H0V0Z" fill="#2E52B2"/>
<path d="M3.72709 10.8304L3.4152 9.83234L3.07212 10.8304H2.04288L2.87719 11.4308L2.56529 12.4288L3.4152 11.8128L4.24171 12.4288L3.92202 11.4308L4.77192 10.8304H3.72709ZM8.11695 10.8304L7.79726 9.83234L7.46978 10.8304H6.44054L7.27485 11.4308L6.96296 12.4288L7.79726 11.8128L8.63937 12.4288L8.32748 11.4308L9.16179 10.8304H8.11695ZM12.5224 10.8304L12.1871 9.83234L11.8752 10.8304H10.8226L11.6803 11.4308L11.3528 12.4288L12.1871 11.8128L13.0448 12.4288L12.7173 11.4308L13.5516 10.8304H12.5224ZM16.9045 10.8304L16.5926 9.83234L16.2651 10.8304H15.2281L16.0702 11.4308L15.7583 12.4288L16.5926 11.8128L17.4347 12.4288L17.0994 11.4308L17.9571 10.8304H16.9045ZM7.79726 5.87132L7.46978 6.86937H6.44054L7.27485 7.48536L6.96296 8.46781L7.79726 7.85963L8.63937 8.46781L8.32748 7.48536L9.16179 6.86937H8.11695L7.79726 5.87132ZM3.4152 5.87132L3.07212 6.86937H2.04288L2.87719 7.48536L2.56529 8.46781L3.4152 7.85963L4.24171 8.46781L3.92202 7.48536L4.77192 6.86937H3.72709L3.4152 5.87132ZM12.1871 5.87132L11.8752 6.86937H10.8226L11.6803 7.48536L11.3528 8.46781L12.1871 7.85963L13.0448 8.46781L12.7173 7.48536L13.5516 6.86937H12.5224L12.1871 5.87132ZM16.5926 5.87132L16.2651 6.86937H15.2281L16.0702 7.48536L15.7583 8.46781L16.5926 7.85963L17.4347 8.46781L17.0994 7.48536L17.9571 6.86937H16.9045L16.5926 5.87132ZM3.4152 1.9259L3.07212 2.90836H2.04288L2.87719 3.52434L2.56529 4.5146L3.4152 3.89861L4.24171 4.5146L3.92202 3.52434L4.77192 2.90836H3.72709L3.4152 1.9259ZM7.79726 1.9259L7.46978 2.90836H6.44054L7.27485 3.52434L6.96296 4.5146L7.79726 3.89861L8.63937 4.5146L8.32748 3.52434L9.16179 2.90836H8.11695L7.79726 1.9259ZM12.1871 1.9259L11.8752 2.90836H10.8226L11.6803 3.52434L11.3528 4.5146L12.1871 3.89861L13.0448 4.5146L12.7173 3.52434L13.5516 2.90836H12.5224L12.1871 1.9259ZM16.5926 1.9259L16.2651 2.90836H15.2281L16.0702 3.52434L15.7583 4.5146L16.5926 3.89861L17.4347 4.5146L17.0994 3.52434L17.9571 2.90836H16.9045L16.5926 1.9259Z" fill="white"/>
</g>
<defs>
<clipPath id="clip0_3_5">
<rect width="40" height="26.6667" fill="white"/>
</clipPath>
</defs>
</svg>
