<svg width="40" height="27" viewBox="0 0 40 27" fill="none" xmlns="http://www.w3.org/2000/svg">
<g clip-path="url(#clip0_3_12)">
<path d="M0 0H40V26.667H0V0Z" fill="white"/>
<path d="M22.5 -0.000244141H17.5V10.833H0V15.833H17.5V26.6663H22.5V15.833H40V10.833H22.5V-0.000244141Z" fill="#D80027"/>
<path d="M30.7644 17.9707L40 23.1016V17.9707H30.7644ZM24.3478 17.9707L40 26.6663V24.2074L28.774 17.9707H24.3478ZM35.8308 26.6663L24.3478 20.2863V26.6663H35.8308Z" fill="#0052B4"/>
<path d="M24.3478 17.9707L40 26.6663V24.2074L28.774 17.9707H24.3478Z" fill="white"/>
<path d="M24.3478 17.9707L40 26.6663V24.2074L28.774 17.9707H24.3478Z" fill="#D80027"/>
<path d="M7.05789 17.9705L0 21.8916V17.9705H7.05789ZM15.6522 19.0763V26.6662H1.99148L15.6522 19.0763Z" fill="#0052B4"/>
<path d="M11.226 17.9707L0 24.2074V26.6663L15.6522 17.9707H11.226Z" fill="#D80027"/>
<path d="M9.23555 8.69538L0 3.56444V8.69538H9.23555ZM15.6522 8.69538L0 -0.000244141V2.45866L11.226 8.69538H15.6522ZM4.16922 -0.000244141L15.6522 6.37976V-0.000244141H4.16922Z" fill="#0052B4"/>
<path d="M15.6522 8.69538L0 -0.000244141V2.45866L11.226 8.69538H15.6522Z" fill="white"/>
<path d="M15.6522 8.69538L0 -0.000244141V2.45866L11.226 8.69538H15.6522Z" fill="#D80027"/>
<path d="M32.9421 8.69552L40 4.77443V8.69552H32.9421ZM24.3478 7.58974V-0.000183105H38.0085L24.3478 7.58974Z" fill="#0052B4"/>
<path d="M28.774 8.69538L40 2.45866V-0.000244141L24.3478 8.69538H28.774Z" fill="#D80027"/>
</g>
<defs>
<clipPath id="clip0_3_12">
<rect width="40" height="26.6666" fill="white"/>
</clipPath>
</defs>
</svg>
